<?xml version="1.0" encoding="utf-8"?>
<!-- Generator: Adobe Illustrator 22.0.1, SVG Export Plug-In . SVG Version: 6.00 Build 0)  -->
<svg version="1.1" id="Camada_1" xmlns="http://www.w3.org/2000/svg" xmlns:xlink="http://www.w3.org/1999/xlink" x="0px" y="0px"
	 viewBox="0 0 163 191" style="enable-background:new 0 0 163 191;" xml:space="preserve">
<style type="text/css">
	.st0{enable-background:new    ;}
	.st1{fill:#FFFFFF;}
	.st2{fill:#A3FFBF;}
	.st3{fill:none;stroke:#A3FFBF;}
</style>
<title>logo-mersao</title>
<desc>Created with Sketch.</desc>
<g id="Page-1">
	<g id="Desktop-tela-de-aula-imersao-dados-2" transform="translate(-639.000000, -4191.000000)">
		<g id="logo-mersao" transform="translate(636.000000, 4192.000000)">
			<g class="st0">
				<path class="st1" d="M31.5,138v-17.8h2.1V138H31.5z"/>
				<path class="st1" d="M46.3,138l-6.1-15.8h-0.1c0.1,1.3,0.2,2.7,0.2,4.5V138h-1.9v-17.8h3.1l5.7,14.7h0.1l5.7-14.7h3.1V138H54
					v-11.5c0-1.3,0.1-2.8,0.2-4.3h-0.1L48,138H46.3z"/>
				<path class="st1" d="M70.9,138H61v-17.8h9.9v1.8h-7.9v5.8h7.4v1.8h-7.4v6.6h7.9V138z"/>
				<path class="st1" d="M77,130.6v7.4h-2.1v-17.8h4.9c2.2,0,3.8,0.4,4.9,1.3c1,0.8,1.6,2.1,1.6,3.8c0,2.4-1.2,4-3.6,4.8l4.8,8H85
					l-4.3-7.4H77z M77,128.8h2.8c1.5,0,2.5-0.3,3.2-0.9c0.7-0.6,1-1.5,1-2.6c0-1.2-0.3-2-1-2.6c-0.7-0.5-1.8-0.8-3.4-0.8H77V128.8z"
					/>
				<path class="st1" d="M100.4,133.3c0,1.6-0.6,2.8-1.7,3.7c-1.1,0.9-2.7,1.3-4.6,1.3c-2.1,0-3.7-0.3-4.9-0.8v-2
					c0.7,0.3,1.5,0.6,2.4,0.7c0.9,0.2,1.7,0.3,2.6,0.3c1.4,0,2.4-0.3,3.1-0.8c0.7-0.5,1.1-1.3,1.1-2.2c0-0.6-0.1-1.1-0.4-1.5
					c-0.2-0.4-0.7-0.8-1.2-1.1c-0.6-0.3-1.5-0.7-2.7-1.1c-1.7-0.6-2.8-1.3-3.6-2.1c-0.7-0.8-1.1-1.9-1.1-3.2c0-1.4,0.5-2.5,1.5-3.3
					c1-0.8,2.4-1.2,4.1-1.2c1.8,0,3.4,0.3,4.9,1l-0.6,1.8c-1.5-0.6-2.9-0.9-4.3-0.9c-1.1,0-2,0.2-2.6,0.7c-0.6,0.5-0.9,1.1-0.9,2
					c0,0.6,0.1,1.1,0.3,1.5c0.2,0.4,0.6,0.8,1.2,1.1c0.5,0.3,1.4,0.7,2.5,1.1c1.9,0.7,3.2,1.4,3.9,2.1
					C100.1,131,100.4,132,100.4,133.3z"/>
				<path class="st1" d="M115.3,138l-2.2-5.7h-7.2l-2.2,5.7h-2.1l7.1-17.9h1.7l7,17.9H115.3z M111.3,118.7c-0.3,0-0.7-0.1-1-0.2
					c-0.3-0.2-0.7-0.3-1-0.5c-0.3-0.2-0.6-0.3-0.9-0.5c-0.3-0.2-0.6-0.2-0.9-0.2c-0.4,0-0.7,0.1-0.9,0.4c-0.2,0.2-0.4,0.6-0.5,1.1
					h-1.2c0.1-1,0.4-1.8,0.9-2.3c0.5-0.6,1.1-0.8,1.8-0.8c0.4,0,0.7,0.1,1.1,0.2s0.7,0.3,1,0.5c0.3,0.2,0.6,0.4,0.9,0.5
					s0.6,0.2,0.8,0.2c0.4,0,0.7-0.1,0.9-0.4c0.2-0.2,0.4-0.6,0.5-1.1h1.2c-0.1,1-0.4,1.8-0.8,2.3
					C112.7,118.4,112.1,118.7,111.3,118.7z M112.4,130.5l-2.1-5.5c-0.3-0.7-0.5-1.6-0.8-2.6c-0.2,0.8-0.4,1.6-0.8,2.6l-2.1,5.5
					H112.4z"/>
				<path class="st1" d="M135.4,129.1c0,2.9-0.7,5.1-2.2,6.7c-1.4,1.6-3.5,2.5-6,2.5c-2.6,0-4.7-0.8-6.1-2.4
					c-1.4-1.6-2.1-3.9-2.1-6.8c0-2.9,0.7-5.2,2.1-6.8c1.4-1.6,3.5-2.4,6.1-2.4c2.6,0,4.6,0.8,6,2.4
					C134.7,123.9,135.4,126.2,135.4,129.1z M121.2,129.1c0,2.4,0.5,4.2,1.5,5.5s2.5,1.9,4.5,1.9c2,0,3.5-0.6,4.5-1.9
					c1-1.2,1.5-3.1,1.5-5.5c0-2.4-0.5-4.2-1.5-5.5c-1-1.2-2.5-1.9-4.5-1.9c-2,0-3.5,0.6-4.5,1.9
					C121.7,124.9,121.2,126.7,121.2,129.1z"/>
			</g>
			<g class="st0">
				<path class="st2" d="M31.7,171.9c0,5.5-1.5,9.8-4.6,12.7s-7.5,4.4-13.3,4.4H4.4v-33.6h10.4c5.3,0,9.5,1.4,12.5,4.3
					C30.2,162.6,31.7,166.7,31.7,171.9z M25.9,172.1c0-8-3.8-12-11.3-12H9.9v24.3h3.9C21.9,184.4,25.9,180.3,25.9,172.1z"/>
				<path class="st2" d="M59.7,189l-3.4-9.3H43.6l-3.3,9.3h-5.8L47,155.3h6L65.6,189H59.7z M54.9,175l-3.1-9.1
					c-0.2-0.6-0.5-1.6-1-2.9c-0.4-1.3-0.7-2.3-0.8-2.9c-0.4,1.9-1,3.9-1.8,6.2l-3,8.7H54.9z"/>
				<path class="st2" d="M97.3,171.9c0,5.5-1.5,9.8-4.6,12.7s-7.5,4.4-13.3,4.4H70v-33.6h10.4c5.3,0,9.5,1.4,12.5,4.3
					C95.8,162.6,97.3,166.7,97.3,171.9z M91.5,172.1c0-8-3.8-12-11.3-12h-4.8v24.3h3.9C87.5,184.4,91.5,180.3,91.5,172.1z"/>
				<path class="st2" d="M134.3,172.2c0,5.5-1.4,9.7-4.1,12.7c-2.7,3-6.6,4.5-11.6,4.5c-5.1,0-9-1.5-11.7-4.5
					c-2.7-3-4.1-7.3-4.1-12.8c0-5.5,1.4-9.8,4.1-12.8c2.7-3,6.6-4.5,11.7-4.5c5,0,8.8,1.5,11.6,4.5
					C132.9,162.5,134.3,166.7,134.3,172.2z M108.7,172.2c0,4.1,0.8,7.3,2.5,9.4c1.7,2.1,4.1,3.2,7.4,3.2c3.3,0,5.7-1.1,7.4-3.2
					c1.7-2.1,2.5-5.3,2.5-9.4c0-4.1-0.8-7.2-2.5-9.4c-1.6-2.1-4.1-3.2-7.4-3.2c-3.3,0-5.8,1.1-7.4,3.2
					C109.5,164.9,108.7,168.1,108.7,172.2z"/>
				<path class="st2" d="M160.8,179.9c0,3-1.1,5.3-3.2,7c-2.2,1.7-5.1,2.5-8.9,2.5c-3.8,0-6.9-0.6-9.3-1.8v-5.2
					c1.5,0.7,3.2,1.3,4.9,1.7c1.7,0.4,3.3,0.6,4.8,0.6c2.2,0,3.8-0.4,4.8-1.2c1-0.8,1.5-1.9,1.5-3.3c0-1.3-0.5-2.3-1.4-3.2
					c-0.9-0.9-2.9-1.9-5.9-3.1c-3.1-1.2-5.2-2.7-6.5-4.2c-1.3-1.6-1.9-3.5-1.9-5.7c0-2.8,1-5,3-6.6c2-1.6,4.7-2.4,8-2.4
					c3.2,0,6.4,0.7,9.6,2.1l-1.7,4.5c-3-1.3-5.6-1.9-8-1.9c-1.8,0-3.1,0.4-4,1.2s-1.4,1.8-1.4,3.1c0,0.9,0.2,1.6,0.6,2.2
					c0.4,0.6,1,1.2,1.8,1.8c0.8,0.6,2.4,1.3,4.5,2.2c2.5,1,4.3,2,5.4,2.9c1.1,0.9,2,1.9,2.5,3C160.6,177.1,160.8,178.4,160.8,179.9z
					"/>
			</g>
			<g id="capacete-imersoes" transform="translate(28.000000, 0.000000)">
				<g id="capacete">
					<path id="Combined-Shape" class="st3" d="M73.3,0c4.5,0,8.2,3.6,8.2,7.9l0,0v2l0.2,0.1c8.9,4.6,16.1,11.5,21,20l0,0h2.8
						c4.5,0,8.2,3.6,8.2,7.9l0,0v33.4c0,4.4-3.7,7.9-8.2,7.9l0,0h-2.8c-2,3.4-4.3,6.6-7.1,9.5l0,0v3.1c0,3.6-3.1,6.6-6.8,6.6l0,0H24
						c-3.8,0-6.8-3-6.8-6.6l0,0v-4.1c-2.4-2.7-4.5-5.5-6.2-8.5l0,0H8.2c-4.5,0-8.2-3.6-8.2-7.9l0,0V38c0-4.4,3.7-7.9,8.2-7.9l0,0H11
						c4.6-8,11.3-14.6,19.5-19.2l0,0V7.9c0-4.4,3.7-7.9,8.2-7.9l0,0H73.3z"/>
				</g>
				<g id="Group-3" transform="translate(22.000000, 19.000000)">
					<ellipse id="Oval" class="st3" cx="35" cy="32.5" rx="34" ry="32.5"/>
					<ellipse id="Oval-Copy" class="st3" cx="35" cy="32.5" rx="27" ry="25.8"/>
					<path id="Rectangle" class="st3" d="M10,36.4l31.6-25.3c5.1-4.1,12.5-3.4,16.8,1.5c4.1,4.6,3.6,11.7-1,15.8
						c-0.1,0.1-0.3,0.2-0.4,0.3L25.4,53.9c-5.1,4.1-12.5,3.4-16.8-1.5c-4.1-4.6-3.6-11.7,1-15.8C9.8,36.6,9.9,36.5,10,36.4z"/>
					<path id="Rectangle-Copy-8" class="st3" d="M60,36.4L28.4,11.1C23.3,7,15.9,7.6,11.6,12.5c-4.1,4.6-3.6,11.7,1,15.8
						c0.1,0.1,0.3,0.2,0.4,0.3l31.6,25.3c5.1,4.1,12.5,3.4,16.8-1.5c4.1-4.6,3.6-11.7-1-15.8C60.2,36.6,60.1,36.5,60,36.4z"/>
				</g>
			</g>
		</g>
	</g>
</g>
</svg>
